# xmcd CD database file
#
# Track frame offsets:
#	162
#	20675
#	41225
#	60800
#	76850
#	91587
#	110212
#	132162
#	149525
#	167637
#
# Disc length: 2712 seconds
#
# Revision: 0
# Processed by: cddbd v1.4b41PL3 Copyright (c) Steve Scherf et al.
# Submitted via: Feurio! 1.61 - http://www.feurio.com
#
DISCID=7e0a960a
DTITLE=Chris Farlowe - The Voice
DYEAR=1900
DGENRE=
TTITLE0=I want to do everything for you
TTITLE1=Easy as that
TTITLE2=Language of the heart
TTITLE3=Private number
TTITLE4=Feel so good
TTITLE5=Loving arms
TTITLE6=Handbags and gladrags
TTITLE7=All or nothing
TTITLE8=She knows
TTITLE9=Borderline blues
EXTD=
EXTT0=
EXTT1=
EXTT2=
EXTT3=
EXTT4=
EXTT5=
EXTT6=
EXTT7=
EXTT8=
EXTT9=
PLAYORDER=
